<svg xmlns="http://www.w3.org/2000/svg" xmlns:xlink="http://www.w3.org/1999/xlink" width="512" height="512" viewBox="0 0 512 512" fill="none"><path     fill="#FFFFFF"  d="M0 412L0 100C0 44.7715 44.7715 0 100 0L412 0C467.228 0 512 44.7715 512 100L512 412C512 467.228 467.228 512 412 512L100 512C44.7715 512 0 467.228 0 412Z"></path><path     fill="#000000"  d="M74.0896 267.948L212.983 365.709C221.558 371.744 233.337 370.133 239.976 362.016L347.509 230.543C354.863 221.553 353.037 208.211 343.54 201.526L204.646 103.765C196.072 97.73 184.292 99.3415 177.653 107.458L70.1199 238.931C62.7666 247.921 64.5919 261.263 74.0896 267.948Z"></path><path     fill="#000000"  d="M438.649 267.728L299.756 365.488C291.181 371.524 279.402 369.912 272.763 361.796L165.23 230.323C157.876 221.332 159.702 207.99 169.199 201.305L308.093 103.545C316.667 97.5093 328.447 99.1209 335.086 107.237L442.619 238.71C449.972 247.701 448.147 261.043 438.649 267.728Z"></path><path     fill="#2B2B2B"  d="M127.238 306.279L241.71 420.841C249.521 428.659 262.193 428.659 270.005 420.841L384.477 306.279C392.28 298.47 392.28 285.815 384.477 278.006L270.005 163.444C262.193 155.627 249.521 155.627 241.71 163.444L127.238 278.006C119.435 285.815 119.435 298.47 127.238 306.279Z"></path></svg>