<svg xmlns="http://www.w3.org/2000/svg" xmlns:xlink="http://www.w3.org/1999/xlink" width="438.488037109375" height="362.9998474121094" viewBox="0 0 438.488037109375 362.9998474121094" fill="none"><path     fill="#000000"  d="M36.9641 195.948L175.858 293.709C184.432 299.744 196.212 298.133 202.85 290.016L310.384 158.543C317.737 149.553 315.912 136.211 306.414 129.526L167.521 31.7651C158.946 25.73 147.166 27.3415 140.528 35.4578L32.9944 166.931C25.6411 175.921 27.4664 189.263 36.9641 195.948Z"></path><path     fill="#000000"  d="M401.524 195.728L262.63 293.488C254.056 299.524 242.276 297.912 235.638 289.796L128.104 158.323C120.751 149.332 122.576 135.99 132.074 129.305L270.967 31.5445C279.542 25.5093 291.322 27.1209 297.96 35.2372L405.494 166.71C412.847 175.701 411.022 189.043 401.524 195.728Z"></path><path     fill="#2B2B2B"  d="M90.1122 234.279L204.584 348.841C212.396 356.659 225.068 356.659 232.879 348.841L347.351 234.279C355.154 226.47 355.154 213.815 347.351 206.006L232.879 91.4445C225.068 83.6266 212.396 83.6266 204.584 91.4445L90.1122 206.006C82.3091 213.815 82.3091 226.47 90.1122 234.279Z"></path></svg>