<svg viewBox="0 0 1000 1000" xmlns="http://www.w3.org/2000/svg" xmlns:xlink="http://www.w3.org/1999/xlink" width="1000.000000" height="1000.000000" fill="none">
	<defs>
		<linearGradient id="paint_linear_1" x1="500" x2="500" y1="0" y2="1000" gradientUnits="userSpaceOnUse">
			<stop stop-color="rgb(23,135,255)" offset="0" stop-opacity="1" />
			<stop stop-color="rgb(96,173,255)" offset="1" stop-opacity="1" />
		</linearGradient>
		<g id="pixso_custom_effect_0">
			<effect visibility="visible" effectType="" stdDeviation="10" />
		</g>
		<filter id="filter_0" width="700.000000" height="700.000000" x="150.000000" y="150.000000" filterUnits="userSpaceOnUse" customEffect="url(#pixso_custom_effect_0)" color-interpolation-filters="sRGB">
			<feFlood flood-opacity="0" result="BackgroundImageFix" />
			<feBlend result="shape" in="SourceGraphic" in2="BackgroundImageFix" mode="normal" />
		</filter>
	</defs>
	<rect id="run" width="1000.000000" height="1000.000000" x="0.000000" y="0.000000" />
	<rect id="矩形 1" width="1000.000000" height="1000.000000" x="0.000000" y="0.000000" rx="272.000000" fill="url(#paint_linear_1)" />
	<rect id="矩形 1" width="980.000000" height="980.000000" x="10.000000" y="10.000000" rx="262.000000" stroke="rgb(255,255,255)" stroke-opacity="0.25" stroke-width="20.000000" />
	<g filter="url(#filter_0)">
		<path id="logo(边框)" d="M500 150C693.3 150 850 306.7 850 500C850 693.3 693.3 850 500 850C306.7 850 150 693.3 150 500C150 306.7 306.7 150 500 150ZM500 296.512C483.615 296.512 467.678 298.374 452.189 302.1L452.188 302.1C441.526 304.665 431.076 308.112 420.838 312.443C409.964 317.042 399.64 322.493 389.866 328.798L389.866 328.798C377.773 336.598 366.522 345.702 356.112 356.112C345.703 366.521 336.598 377.772 328.799 389.865C322.494 399.639 317.042 409.964 312.443 420.838C308.112 431.076 304.665 441.527 302.1 452.19L302.1 452.191C298.374 467.679 296.512 483.616 296.512 500C296.512 516.385 298.374 532.322 302.1 547.811L302.1 547.812C304.665 558.474 308.112 568.924 312.443 579.162C317.042 590.036 322.494 600.36 328.798 610.134L328.799 610.135C336.598 622.228 345.703 633.479 356.112 643.888C366.521 654.297 377.773 663.402 389.865 671.202C399.64 677.506 409.964 682.958 420.838 687.557C431.076 691.888 441.527 695.335 452.189 697.9C467.678 701.626 483.615 703.488 500 703.488C516.385 703.488 532.322 701.626 547.811 697.9C558.473 695.335 568.924 691.888 579.162 687.557C590.036 682.958 600.361 677.506 610.136 671.201C622.228 663.401 633.479 654.297 643.888 643.888C654.297 633.479 663.401 622.228 671.201 610.136C677.506 600.361 682.958 590.036 687.557 579.162C691.888 568.924 695.335 558.473 697.9 547.811C701.626 532.322 703.488 516.385 703.488 500C703.488 483.615 701.626 467.678 697.9 452.189C695.335 441.527 691.888 431.076 687.557 420.838C682.958 409.964 677.507 399.64 671.203 389.866C663.403 377.773 654.298 366.522 643.888 356.112C633.479 345.703 622.229 336.599 610.137 328.8L610.136 328.799C600.361 322.494 590.036 317.042 579.162 312.443C568.924 308.112 558.473 304.665 547.81 302.1L547.809 302.1C532.321 298.374 516.384 296.512 500 296.512Z" fill="rgb(255,255,255)" fill-opacity="0.699999988" fill-rule="evenodd" />
	</g>
</svg>
